<mxfile host="65bd71144e">
    <diagram id="126sHHCLp8CsaSrpqmQq" name="Page-1">
        <mxGraphModel dx="590" dy="554" grid="1" gridSize="10" guides="1" tooltips="1" connect="1" arrows="1" fold="1" page="1" pageScale="1" pageWidth="850" pageHeight="1100" math="0" shadow="0">
            <root>
                <mxCell id="0"/>
                <mxCell id="1" parent="0"/>
                <mxCell id="2" value="" style="sketch=0;outlineConnect=0;fontColor=#ffffff;fillColor=#006EAF;strokeColor=default;dashed=0;verticalLabelPosition=bottom;verticalAlign=top;align=center;html=1;fontSize=12;fontStyle=0;aspect=fixed;pointerEvents=1;shape=mxgraph.aws4.event;" vertex="1" parent="1">
                    <mxGeometry x="40" y="80" width="78" height="78" as="geometry"/>
                </mxCell>
                <mxCell id="4" value="" style="endArrow=none;html=1;fillColor=#1ba1e2;strokeColor=#006EAF;strokeWidth=3;" edge="1" parent="1">
                    <mxGeometry width="50" height="50" relative="1" as="geometry">
                        <mxPoint x="264.5" y="194" as="sourcePoint"/>
                        <mxPoint x="264.5" y="44" as="targetPoint"/>
                    </mxGeometry>
                </mxCell>
                <mxCell id="8" value="" style="shape=cylinder3;whiteSpace=wrap;html=1;boundedLbl=1;backgroundOutline=1;size=15;strokeColor=#006EAF;fillColor=none;fontColor=#ffffff;strokeWidth=3;" vertex="1" parent="1">
                    <mxGeometry x="470" y="79" width="60" height="80" as="geometry"/>
                </mxCell>
                <mxCell id="5" value="" style="verticalLabelPosition=bottom;html=1;verticalAlign=top;align=center;strokeColor=none;fillColor=#006EAF;shape=mxgraph.azure.automation;pointerEvents=1;fontColor=#ffffff;" vertex="1" parent="1">
                    <mxGeometry x="325" y="96.5" width="50" height="45" as="geometry"/>
                </mxCell>
                <mxCell id="6" value="" style="ellipse;whiteSpace=wrap;html=1;aspect=fixed;strokeColor=#006EAF;fillColor=none;strokeWidth=3;" vertex="1" parent="1">
                    <mxGeometry x="310" y="79" width="80" height="80" as="geometry"/>
                </mxCell>
                <mxCell id="10" value="" style="endArrow=open;html=1;strokeWidth=1;endFill=0;fillColor=#1ba1e2;strokeColor=#006EAF;" edge="1" parent="1" source="2" target="6">
                    <mxGeometry width="50" height="50" relative="1" as="geometry">
                        <mxPoint x="290" y="320" as="sourcePoint"/>
                        <mxPoint x="340" y="270" as="targetPoint"/>
                    </mxGeometry>
                </mxCell>
                <mxCell id="11" value="Flujo de datos&lt;br&gt;de entrada" style="text;html=1;align=center;verticalAlign=middle;resizable=0;points=[];autosize=1;strokeColor=none;fillColor=none;fontColor=#006EAF;" vertex="1" parent="1">
                    <mxGeometry x="140" y="119" width="100" height="40" as="geometry"/>
                </mxCell>
                <mxCell id="13" value="Ocurre un evento del&lt;br&gt;negocio en un&lt;br&gt;sistema adjacente" style="text;html=1;align=center;verticalAlign=middle;resizable=0;points=[];autosize=1;strokeColor=none;fillColor=none;fontColor=#006EAF;" vertex="1" parent="1">
                    <mxGeometry x="10" y="160" width="140" height="60" as="geometry"/>
                </mxCell>
                <mxCell id="14" value="Frontera del&lt;br&gt;trabajo" style="text;html=1;align=center;verticalAlign=middle;resizable=0;points=[];autosize=1;strokeColor=none;fillColor=none;fontColor=#006EAF;" vertex="1" parent="1">
                    <mxGeometry x="220" y="200" width="90" height="40" as="geometry"/>
                </mxCell>
                <mxCell id="15" value="El trabajo responde al&lt;br&gt;evento del negocio&lt;br&gt;con un caso de uso&lt;br&gt;del negocio" style="text;html=1;align=center;verticalAlign=middle;resizable=0;points=[];autosize=1;strokeColor=none;fillColor=none;fontColor=#006EAF;" vertex="1" parent="1">
                    <mxGeometry x="280" width="140" height="70" as="geometry"/>
                </mxCell>
                <mxCell id="16" value="Datos almacenados&lt;br&gt;" style="text;html=1;align=center;verticalAlign=middle;resizable=0;points=[];autosize=1;strokeColor=none;fillColor=none;fontColor=#006EAF;" vertex="1" parent="1">
                    <mxGeometry x="435" y="159" width="130" height="30" as="geometry"/>
                </mxCell>
                <mxCell id="17" value="" style="endArrow=open;html=1;strokeWidth=1;endFill=0;fillColor=#1ba1e2;strokeColor=#006EAF;" edge="1" parent="1">
                    <mxGeometry width="50" height="50" relative="1" as="geometry">
                        <mxPoint x="395" y="109" as="sourcePoint"/>
                        <mxPoint x="465" y="109" as="targetPoint"/>
                    </mxGeometry>
                </mxCell>
                <mxCell id="18" value="" style="endArrow=none;html=1;strokeWidth=1;endFill=0;fillColor=#1ba1e2;strokeColor=#006EAF;startArrow=open;startFill=0;" edge="1" parent="1">
                    <mxGeometry width="50" height="50" relative="1" as="geometry">
                        <mxPoint x="395" y="129.5" as="sourcePoint"/>
                        <mxPoint x="465" y="129.5" as="targetPoint"/>
                    </mxGeometry>
                </mxCell>
            </root>
        </mxGraphModel>
    </diagram>
</mxfile>